<svg width="9" height="6" viewBox="0 0 9 6" fill="none" xmlns="http://www.w3.org/2000/svg">
<path d="M4.50175 0.000455166C5.70654 0.000455219 6.91162 -0.00160098 8.1164 0.00302563C8.27756 0.0035397 8.44567 0.0194756 8.59843 0.0623998C8.91265 0.151076 9.066 0.401681 8.97312 0.680816C8.91931 0.842232 8.83858 1.00416 8.7324 1.14296C7.61123 2.60855 6.48224 4.06951 5.35557 5.5315C5.16924 5.77337 4.93778 5.9628 4.59463 5.99493C4.2046 6.03143 3.9118 5.86796 3.69711 5.59602C3.25732 5.03878 2.82795 4.47511 2.39511 3.91375C1.69 2.99898 0.984891 2.08446 0.282098 1.1684C0.206582 1.06996 0.13743 0.965092 0.0830354 0.856368C-0.144381 0.401166 0.109654 0.0356682 0.670094 0.00482453C0.756605 0.000197971 0.843406 0.000455006 0.930206 0.00045501C2.12053 0.000455062 3.31114 0.000455114 4.50146 0.000455166L4.50175 0.000455166Z" fill="#0C001E"/>
</svg>
