<svg width="14" height="15" viewBox="0 0 14 15" fill="none" xmlns="http://www.w3.org/2000/svg">
<path d="M5.03293 11.9088C5.03055 12.826 5.03174 13.7432 5.03134 14.6604C5.03134 14.7957 4.98481 14.8439 4.85552 14.8441C4.42982 14.8447 4.00412 14.8443 3.57843 14.8443H3.50002C3.50002 14.7913 3.50002 14.7548 3.50002 14.718C3.50002 10.9354 3.49962 7.15298 3.50259 3.37037C3.50259 3.27357 3.52299 3.16833 3.56437 3.08218C3.63248 2.94039 3.76237 2.87271 3.91819 2.86147C3.94116 2.85986 3.96433 2.86046 3.98749 2.86046C5.99698 2.86046 8.00668 2.86046 10.0162 2.86046C10.2601 2.86046 10.4276 2.97955 10.4846 3.19544C10.4963 3.23983 10.4993 3.28783 10.4995 3.33422C10.5001 7.10659 10.5001 10.8792 10.4999 14.6515C10.4999 14.8273 10.4363 14.8574 10.2169 14.8391C9.89163 14.812 9.56493 14.8122 9.23962 14.8397C9.0335 14.857 8.96895 14.8238 8.96875 14.6596C8.96836 13.7424 8.96955 12.8252 8.96717 11.908L8.96856 11.1432C8.96875 10.9816 8.83986 10.8502 8.68047 10.85C7.57088 10.8492 6.44625 10.8492 5.33666 10.85C5.17964 10.85 5.05174 10.9776 5.04857 11.1366L5.03293 11.9082V11.9088ZM7.43703 7.08249C7.43703 7.00236 7.44 6.92202 7.43644 6.84189C7.42614 6.6011 7.23329 6.41232 7.00005 6.41252C6.76542 6.41252 6.57197 6.59969 6.56405 6.84129C6.55891 6.99814 6.5591 7.15559 6.56405 7.31244C6.57158 7.55283 6.76641 7.74181 6.99985 7.74201C7.23389 7.74201 7.42614 7.55443 7.43664 7.31304C7.44 7.23632 7.43723 7.1594 7.43723 7.08249H7.43703ZM7.43703 4.86072C7.43703 4.78059 7.4402 4.70005 7.43644 4.62012C7.42476 4.37873 7.23171 4.19256 6.99747 4.19376C6.76285 4.19497 6.57158 4.38234 6.56425 4.62515C6.5595 4.77878 6.56009 4.93261 6.56405 5.08645C6.57019 5.32825 6.76126 5.52024 6.99312 5.52325C7.23131 5.52646 7.42693 5.33708 7.43703 5.09147C7.4402 5.01475 7.43743 4.93784 7.43723 4.86092L7.43703 4.86072ZM7.43723 9.29462C7.43723 9.2177 7.4398 9.14078 7.43683 9.06407C7.42713 8.82187 7.23705 8.63349 7.00322 8.63208C6.76364 8.63068 6.57039 8.81966 6.56386 9.06728C6.5597 9.22091 6.5595 9.37495 6.56386 9.52858C6.57079 9.76918 6.76443 9.95996 6.99688 9.96137C7.23052 9.96277 7.42476 9.7758 7.43644 9.53541C7.4404 9.45548 7.43703 9.37495 7.43723 9.29482V9.29462ZM8.52167 9.2904L8.53217 9.2912C8.53217 9.37133 8.52999 9.45166 8.53256 9.5318C8.54048 9.76958 8.7363 9.96137 8.96895 9.96117C9.20239 9.96117 9.39821 9.77058 9.40475 9.5318C9.40891 9.37475 9.40871 9.2175 9.40475 9.06045C9.3992 8.84556 9.23487 8.66321 9.02756 8.63489C8.8161 8.60618 8.61117 8.7321 8.55632 8.94377C8.52761 9.05483 8.53197 9.17452 8.52147 9.2904H8.52167ZM5.46813 9.2904C5.46813 9.21348 5.47051 9.13656 5.46773 9.05985C5.45902 8.82086 5.26459 8.63148 5.03035 8.63208C4.79493 8.63248 4.60149 8.82106 4.59535 9.06125C4.59139 9.2183 4.59139 9.37555 4.59535 9.5326C4.60149 9.77018 4.79909 9.96157 5.03214 9.96137C5.26538 9.96117 5.45942 9.77058 5.46773 9.53119C5.47051 9.45106 5.46813 9.37073 5.46813 9.2906V9.2904ZM5.46813 4.85188C5.46813 4.77496 5.47051 4.69805 5.46773 4.62133C5.45882 4.38274 5.26379 4.19316 5.02996 4.19376C4.79493 4.19437 4.60129 4.38335 4.59535 4.62374C4.59139 4.78079 4.59119 4.93804 4.59535 5.09508C4.60168 5.33267 4.79949 5.52385 5.03233 5.52345C5.26577 5.52285 5.45942 5.33226 5.46754 5.09288C5.47031 5.01274 5.46793 4.93241 5.46793 4.85228L5.46813 4.85188ZM9.40574 4.86473C9.40574 4.7846 9.40792 4.70427 9.40534 4.62414C9.39742 4.38475 9.20378 4.19437 8.97034 4.19376C8.73531 4.19316 8.53989 4.38154 8.53316 4.62093C8.5288 4.77798 8.5292 4.93522 8.53316 5.09227C8.5389 5.33066 8.73512 5.52265 8.96776 5.52325C9.20121 5.52385 9.39683 5.33387 9.40554 5.09549C9.40831 5.01877 9.40594 4.94165 9.40613 4.86493L9.40574 4.86473ZM5.47763 7.0851L5.46793 7.08429C5.46793 7.00075 5.4711 6.917 5.46734 6.83366C5.45704 6.6009 5.26201 6.41292 5.03332 6.41212C4.7985 6.41132 4.60208 6.5999 4.59555 6.83888C4.59119 6.99593 4.59179 7.15318 4.59535 7.31023C4.6003 7.52953 4.76682 7.71269 4.97986 7.739C5.18954 7.7649 5.39309 7.63456 5.44595 7.42209C5.47288 7.31384 5.46813 7.19756 5.47763 7.0851V7.0851ZM8.52167 7.07044L8.53217 7.07144C8.53217 7.15157 8.52999 7.2319 8.53256 7.31203C8.54028 7.55042 8.73492 7.74161 8.96816 7.74201C9.2022 7.74241 9.39821 7.55243 9.40475 7.31344C9.4091 7.15639 9.40871 6.99914 9.40475 6.84209C9.3994 6.62741 9.23605 6.44506 9.02835 6.41513C8.81946 6.38501 8.61176 6.51253 8.55672 6.72401C8.52781 6.83486 8.53217 6.95456 8.52147 7.07044H8.52167Z" fill="#03DAC5"/>
<path d="M11.3829 10.2877C11.3829 8.85072 11.3829 7.41353 11.3829 5.97654C11.3829 5.76273 11.4093 5.7364 11.6226 5.7364C12.2532 5.7364 12.8841 5.74384 13.5146 5.73299C13.7958 5.72816 14.0008 5.95624 14.0002 6.22953C13.9943 8.93612 13.9941 11.6429 14.0002 14.3495C14.0008 14.623 13.7881 14.8497 13.5126 14.8444C12.8689 14.832 12.225 14.8406 11.5812 14.8404C11.4239 14.8404 11.3829 14.7992 11.3829 14.6393C11.3827 13.1888 11.3829 11.7384 11.3829 10.2879V10.2877ZM13.1249 8.18759C13.1249 8.10741 13.1271 8.02703 13.1245 7.94685C13.117 7.70691 12.9261 7.51581 12.6935 7.5138C12.4596 7.51179 12.2645 7.69908 12.2572 7.93941C12.2522 8.09977 12.252 8.26053 12.2574 8.42089C12.2651 8.65479 12.4592 8.84308 12.6866 8.84469C12.9188 8.8463 13.1149 8.6562 13.1243 8.41828C13.1273 8.34151 13.1247 8.26455 13.1249 8.18759V8.18759ZM12.2564 12.168C12.2564 12.2516 12.2534 12.3354 12.257 12.4188C12.267 12.6525 12.4602 12.8404 12.6878 12.8412C12.9162 12.842 13.1143 12.6565 13.1234 12.4238C13.1297 12.2602 13.1291 12.0961 13.1237 11.9323C13.1161 11.6994 12.9204 11.5113 12.6925 11.5101C12.4629 11.5089 12.2694 11.6928 12.2574 11.9273C12.2532 12.0072 12.2568 12.0878 12.2566 12.168H12.2564ZM13.1251 10.1808C13.1251 10.1038 13.1269 10.0269 13.1247 9.95012C13.1182 9.70455 12.9253 9.51164 12.6886 9.51225C12.4546 9.51285 12.2635 9.70114 12.257 9.94288C12.2528 10.1 12.2526 10.2574 12.257 10.4145C12.2639 10.6538 12.459 10.8433 12.6915 10.8427C12.9235 10.8421 13.1165 10.651 13.1243 10.4117C13.1269 10.3349 13.1247 10.2578 13.1249 10.181L13.1251 10.1808Z" fill="#03DAC5"/>
<path d="M2.61737 10.2897C2.61737 11.7313 2.61737 13.1729 2.61737 14.6145C2.61737 14.812 2.58639 14.8443 2.39713 14.8443C1.75573 14.8443 1.11434 14.8447 0.472746 14.8443C0.182046 14.8441 8.7712e-05 14.6583 8.7712e-05 14.3613C8.7712e-05 11.6456 -0.00010964 8.93015 8.7712e-05 6.2145C8.7712e-05 5.91564 0.179481 5.73343 0.47393 5.73323C1.11868 5.73263 1.76343 5.73303 2.40818 5.73323C2.57869 5.73323 2.61717 5.77204 2.61717 5.945C2.61717 7.39323 2.61717 8.84166 2.61717 10.2899L2.61737 10.2897ZM0.872976 12.1713C0.872976 12.2516 0.870805 12.332 0.87337 12.4123C0.88087 12.651 1.07467 12.8426 1.30735 12.8437C1.53628 12.8445 1.73244 12.6592 1.74132 12.4245C1.74764 12.2608 1.74744 12.0963 1.74132 11.9326C1.73264 11.6979 1.53726 11.5115 1.30893 11.5115C1.07506 11.5115 0.881659 11.7011 0.87337 11.9404C0.870805 12.0173 0.872976 12.0943 0.872778 12.1713H0.872976ZM1.7431 8.17778C1.7431 8.10075 1.74507 8.02373 1.74271 7.9469C1.73481 7.70094 1.54022 7.50887 1.3034 7.51169C1.06934 7.5145 0.878896 7.70476 0.873568 7.9461C0.870213 8.09995 0.870213 8.254 0.873568 8.40806C0.878699 8.64759 1.07151 8.84126 1.30301 8.84387C1.53983 8.84649 1.73481 8.65442 1.74271 8.40886C1.74507 8.33204 1.7431 8.25501 1.7431 8.17798V8.17778ZM1.74271 10.1843C1.74271 10.1006 1.74606 10.0168 1.74211 9.93331C1.73087 9.69439 1.53411 9.50836 1.30005 9.51178C1.07092 9.5152 0.880475 9.70384 0.873963 9.93935C0.869621 10.0966 0.870016 10.2541 0.873963 10.4114C0.879686 10.6503 1.07487 10.8426 1.30676 10.8434C1.54022 10.8442 1.73304 10.6557 1.74271 10.4152C1.74586 10.3384 1.7431 10.2611 1.7429 10.1843H1.74271Z" fill="#03DAC5"/>
<path d="M8.09545 13.3084C8.09545 13.754 8.09565 14.1997 8.09545 14.6453C8.09545 14.8043 8.05422 14.8456 7.89664 14.8456C7.29586 14.8456 6.69507 14.8456 6.09428 14.8456C5.94959 14.8456 5.90479 14.8013 5.90459 14.6565C5.9042 13.7518 5.9042 12.8473 5.90459 11.9426C5.90459 11.8045 5.95197 11.7564 6.08814 11.7562C6.69547 11.7558 7.30299 11.7558 7.91032 11.7562C8.04669 11.7562 8.09506 11.8049 8.09525 11.9414C8.09585 12.3971 8.09545 12.8527 8.09545 13.3084Z" fill="#03DAC5"/>
<path d="M6.99099 1.96576C6.26294 1.96576 5.53488 1.96576 4.80683 1.96576C4.63416 1.96576 4.59639 1.92808 4.59619 1.75692C4.59599 1.53666 4.595 1.3162 4.59659 1.09593C4.59837 0.824964 4.78428 0.63737 5.05189 0.63717C6.34977 0.636568 7.64784 0.636568 8.94571 0.63717C9.21708 0.63717 9.40201 0.826367 9.40359 1.10395C9.40497 1.32762 9.40438 1.55129 9.40359 1.77496C9.40319 1.92046 9.35889 1.96536 9.21431 1.96536C8.473 1.96576 7.7319 1.96536 6.99059 1.96536L6.99099 1.96576Z" fill="#03DAC5"/>
</svg>
