<svg width="19" height="14" viewBox="0 0 19 14" fill="none" xmlns="http://www.w3.org/2000/svg">
<path d="M8.51339 7.21985C8.39778 7.25665 8.33003 7.27676 8.26296 7.29959C6.31377 7.95555 4.36491 8.61185 2.41572 9.26815C2.3837 9.27905 2.35168 9.28962 2.31933 9.29882C2.05339 9.37413 1.83531 9.28485 1.73959 9.06165C1.64151 8.833 1.73251 8.60094 1.97823 8.4626C2.13024 8.37707 2.28427 8.29596 2.43729 8.21248C2.44134 8.21009 2.44302 8.20328 2.4555 8.18181C2.31798 8.00734 2.17608 7.8264 2.0335 7.64648C1.40827 6.85762 0.782691 6.06945 0.157117 5.28093C-0.0963489 4.9613 -0.0417459 4.67677 0.310814 4.48526C0.449343 4.40995 0.592592 4.34316 0.728088 4.26308C0.926614 4.14552 1.11469 4.15302 1.31793 4.2607C2.36685 4.8175 3.42049 5.36544 4.46839 5.92394C4.6022 5.99516 4.70231 5.99482 4.83645 5.92394C7.65794 4.43312 10.4804 2.94435 13.307 1.46341C13.8446 1.1816 14.392 0.914107 14.9522 0.682731C15.2204 0.571985 15.5272 0.546428 15.8197 0.508604C16.2646 0.451356 16.7119 0.409783 17.1592 0.375367C17.5606 0.344358 17.9607 0.364463 18.321 0.57437C18.742 0.819716 18.832 1.21295 18.5799 1.63243C18.3638 1.99193 18.0558 2.26181 17.7022 2.46115C16.8248 2.95593 15.9353 3.42891 15.0475 3.90495C14.3333 4.28796 13.614 4.66143 12.8988 5.04274C12.821 5.08431 12.7475 5.1419 12.6868 5.2063C11.5678 6.38737 10.4535 7.57287 9.33041 8.7502C9.18918 8.89809 9.01526 9.02212 8.83865 9.12571C8.53799 9.30223 8.22386 9.45523 7.9141 9.61606C7.69502 9.72988 7.53222 9.71522 7.40583 9.57619C7.28213 9.44023 7.28179 9.27122 7.40953 9.05961C7.74861 8.49735 8.08904 7.93578 8.42845 7.37353C8.44867 7.34014 8.46654 7.30504 8.51305 7.22053L8.51339 7.21985Z" fill="#6200EE"/>
<path d="M9.79448 13.902C7.05142 13.902 4.30803 13.902 1.56497 13.902C1.07284 13.902 0.739929 13.6527 0.638946 13.2127C0.530556 12.7404 0.829469 12.2577 1.2913 12.1645C1.37882 12.1468 1.46937 12.1388 1.55857 12.1388C7.05614 12.1377 12.5537 12.1374 18.0513 12.1381C18.5972 12.1381 18.9803 12.482 18.9995 12.9821C19.0173 13.4506 18.6841 13.8453 18.2256 13.8954C18.1479 13.9038 18.0688 13.9024 17.9903 13.9024C15.2584 13.9024 12.5264 13.9024 9.79448 13.9024V13.902Z" fill="#6200EE"/>
</svg>
