<svg width="14" height="13" viewBox="0 0 14 13" fill="none" xmlns="http://www.w3.org/2000/svg">
<path d="M13.9937 8.09957C13.9875 7.25957 13.6024 6.63528 12.866 6.25167C12.266 5.93901 11.6307 5.72513 10.9686 5.59559C10.8164 5.5659 10.6635 5.53989 10.4925 5.50915C11.0653 4.97709 11.4094 4.32837 11.6423 3.61212C11.8144 3.08347 11.9227 2.54432 11.8237 1.98545C11.6047 0.752644 10.4989 -0.104962 9.28533 0.0103839C8.04956 0.127832 7.10578 1.18907 7.14215 2.45761C7.1682 3.3612 7.48727 4.17519 7.98843 4.9135C8.13313 5.12685 8.31472 5.31446 8.48057 5.51519C8.44756 5.52281 8.41067 5.53464 8.37276 5.53989C7.69129 5.63474 7.03691 5.8297 6.41219 6.11925C6.17541 6.22908 5.87595 6.40275 5.67244 6.57801C5.64406 6.60244 5.67527 6.61663 5.6892 6.6521C5.69101 6.65683 5.69281 6.6613 5.69462 6.66603C6.04025 7.54833 6.45553 8.39122 7.10655 9.08776C7.29846 9.29297 7.51615 9.47348 7.72457 9.66265C7.84347 9.77064 7.86849 9.90044 7.78363 10.0074C7.69877 10.1143 7.56852 10.1196 7.44058 10.021C7.42356 10.0079 7.40679 9.99424 7.39002 9.98032C6.60926 9.33343 6.01291 8.54204 5.59892 7.60797C5.52722 7.44638 5.45577 7.28401 5.37658 7.10481C5.35853 7.06356 5.33996 7.02205 5.32087 6.97869C5.28218 7.04622 5.25716 7.0859 5.23575 7.12741C5.07996 7.43167 5 7.75485 5 8.09905C5.00077 9.63139 5 11.164 5.00052 12.6963C5.00052 12.9162 5.08099 12.9995 5.29482 12.9998C8.09728 13.0001 10.8997 13.0001 13.7022 12.9998C13.9158 12.9998 13.997 12.916 13.997 12.6969C13.9973 11.1645 14.0053 9.63191 13.9939 8.09957H13.9937ZM8.51694 4.43163C8.15093 3.88905 7.91647 3.30076 7.81949 2.68147C8.94099 2.90585 10.0452 2.90585 11.1799 2.68147C11.1726 2.73376 11.1649 2.7842 11.1546 2.83255C11.0081 3.53513 10.7478 4.1095 10.3594 4.58822C10.226 4.75244 10.0483 4.91166 9.84556 5.04856C9.62658 5.19622 9.39315 5.19438 9.13212 5.0433C8.90539 4.91193 8.70988 4.71776 8.51694 4.43189V4.43163ZM13.2844 11.2817C13.2841 11.6104 13.2838 11.9388 13.2838 12.2675H12.1218V9.62456C12.1218 9.61483 12.1218 9.60538 12.1218 9.59565C12.1224 9.55834 12.1231 9.5121 12.1172 9.46192C12.0875 9.21178 11.8884 9.02523 11.6439 9.01814C11.4626 9.01341 11.3003 9.10826 11.2111 9.2617C10.679 9.11614 10.169 8.87231 9.65908 8.52023C8.90591 8.00025 8.21387 7.20755 7.79782 6.40065C7.92679 6.36755 8.05111 6.3368 8.17647 6.31237C9.57164 6.04148 10.9307 6.1894 12.2157 6.75247C12.4832 6.86965 12.6934 6.99104 12.8588 7.12373C13.1309 7.34234 13.2761 7.64765 13.2784 8.00682C13.2859 9.09801 13.2849 10.2079 13.2838 11.2812L13.2844 11.2817Z" fill="#03DAC5"/>
<path d="M6.41746 11.547C6.41746 11.8151 6.41701 12.0832 6.41701 12.3513H5.56553V10.1441C5.56553 10.1361 5.56553 10.1281 5.56553 10.12C5.56599 10.0876 5.56644 10.0474 5.56168 10.0029C5.53696 9.77704 5.37165 9.60843 5.16848 9.6019C5.02449 9.59738 4.89501 9.67578 4.81927 9.80317C4.41497 9.6803 4.02698 9.47702 3.63878 9.18555C3.06553 8.75513 2.53832 8.10258 2.21497 7.43521C2.3034 7.41084 2.38934 7.38822 2.47574 7.36988C3.25057 7.20631 3.92789 7.20404 4.66304 7.40229C4.74785 7.17867 4.88231 6.9784 5.05533 6.84473C4.89229 6.79347 4.80998 6.77035 4.6424 6.73467C4.52404 6.70955 4.40499 6.68769 4.27211 6.66155C4.71769 6.21128 4.98526 5.66251 5.16644 5.05645C5.30023 4.60919 5.38458 4.15314 5.30748 3.68C5.13741 2.63698 4.27732 1.91106 3.33311 2.00881C2.37188 2.10806 1.63787 3.00609 1.66621 4.07926C1.68639 4.84387 1.93469 5.5326 2.32449 6.15726C2.43719 6.33767 2.57823 6.49647 2.70726 6.66633C2.68141 6.67286 2.65283 6.68291 2.62336 6.68718C2.0932 6.76734 1.58435 6.93242 1.09841 7.17741C0.914286 7.27038 0.742857 7.39501 0.569841 7.51285C0.545351 7.52944 0.525397 7.59828 0.536054 7.62844C0.805669 8.37923 1.12948 9.0966 1.63855 9.68909C1.78776 9.86272 1.95714 10.0155 2.11927 10.1755C2.21179 10.267 2.23129 10.3768 2.16531 10.4673C2.09932 10.5577 1.99796 10.5623 1.89841 10.4788C1.88503 10.4678 1.87211 10.4562 1.85918 10.4444C1.25193 9.89714 0.788209 9.22751 0.465986 8.43702C0.397506 8.26867 0.329252 8.10032 0.24966 7.90483C0.219501 7.96187 0.2 7.99554 0.183447 8.03072C0.0621315 8.28852 0 8.5619 0 8.85312C0.000680272 10.1497 0 11.4465 0.000453515 12.743C0.000453515 12.9292 0.0630385 12.9996 0.229252 12.9998C2.40907 13.0001 4.58889 13.0001 6.76871 12.9998C6.93492 12.9998 6.99796 12.929 6.99819 12.7435C6.99819 12.2427 6.99932 11.7417 7 11.2409C6.80499 11.2163 6.60952 11.1764 6.41814 11.1389C6.41814 11.2756 6.41814 11.4118 6.41791 11.5472L6.41746 11.547ZM2.21701 4.29661C3.07347 4.47903 3.91723 4.47903 4.78345 4.29661C4.77891 4.32978 4.77392 4.36169 4.76803 4.39285C4.65465 4.98383 4.45374 5.46677 4.15351 5.86905C4.05102 6.0065 3.91429 6.13967 3.75805 6.25425C3.59456 6.37435 3.41973 6.37259 3.22358 6.24897C3.04989 6.13967 2.9 5.97735 2.7517 5.73839C2.47415 5.29113 2.29456 4.80669 2.21678 4.29711L2.21701 4.29661Z" fill="#03DAC5"/>
</svg>
