<svg width="9" height="13" viewBox="0 0 9 13" fill="none" xmlns="http://www.w3.org/2000/svg">
<path d="M8.99367 8.09957C8.98748 7.25957 8.60239 6.63528 7.86598 6.25167C7.26603 5.93901 6.63073 5.72513 5.96861 5.59559C5.81643 5.5659 5.66348 5.53989 5.49246 5.50915C6.06534 4.97709 6.40942 4.32837 6.64234 3.61212C6.81438 3.08347 6.92271 2.54432 6.82367 1.98545C6.60468 0.752644 5.49891 -0.104962 4.28533 0.0103839C3.04956 0.127832 2.10578 1.18907 2.14215 2.45761C2.1682 3.3612 2.48727 4.17519 2.98843 4.9135C3.13313 5.12685 3.31472 5.31446 3.48057 5.51519C3.44756 5.52281 3.41067 5.53464 3.37276 5.53989C2.69129 5.63474 2.03691 5.8297 1.41219 6.11925C1.17541 6.22908 0.875947 6.40275 0.672436 6.57801C0.644063 6.60244 0.675273 6.61663 0.689202 6.6521C0.691008 6.65683 0.692813 6.6613 0.694618 6.66603C1.04025 7.54833 1.45553 8.39122 2.10655 9.08776C2.29846 9.29297 2.51615 9.47348 2.72457 9.66265C2.84347 9.77064 2.86849 9.90044 2.78363 10.0074C2.69877 10.1143 2.56852 10.1196 2.44058 10.021C2.42356 10.0079 2.40679 9.99424 2.39002 9.98032C1.60926 9.33343 1.01291 8.54204 0.598925 7.60797C0.527219 7.44638 0.455771 7.28401 0.376585 7.10481C0.358529 7.06356 0.339958 7.02205 0.320871 6.97869C0.282181 7.04622 0.257161 7.0859 0.235752 7.12741C0.0799598 7.43167 0 7.75485 0 8.09905C0.000773805 9.63139 1.10213e-07 11.164 0.00051598 12.6963C0.00051598 12.9162 0.0809914 12.9995 0.294819 12.9998C3.09728 13.0001 5.89974 13.0001 8.70221 12.9998C8.91578 12.9998 8.99703 12.916 8.99703 12.6969C8.99728 11.1645 9.00528 9.63191 8.99393 8.09957H8.99367ZM3.51694 4.43163C3.15093 3.88905 2.91647 3.30076 2.81949 2.68147C3.94099 2.90585 5.04521 2.90585 6.17986 2.68147C6.17264 2.73376 6.1649 2.7842 6.15458 2.83255C6.00808 3.53513 5.74782 4.1095 5.35937 4.58822C5.22602 4.75244 5.0483 4.91166 4.84556 5.04856C4.62658 5.19622 4.39315 5.19438 4.13212 5.0433C3.90539 4.91193 3.70988 4.71776 3.51694 4.43189V4.43163ZM8.28435 11.2817C8.28409 11.6104 8.28384 11.9388 8.28384 12.2675H7.12184V9.62456C7.12184 9.61483 7.12184 9.60538 7.12184 9.59565C7.12235 9.55834 7.12313 9.5121 7.1172 9.46192C7.08753 9.21178 6.88841 9.02523 6.64389 9.01814C6.46256 9.01341 6.30032 9.10826 6.21107 9.2617C5.67895 9.11614 5.16901 8.87231 4.65908 8.52023C3.90591 8.00025 3.21387 7.20755 2.79782 6.40065C2.92679 6.36755 3.05111 6.3368 3.17647 6.31237C4.57164 6.04148 5.9307 6.1894 7.21573 6.75247C7.48321 6.86965 7.69342 6.99104 7.85876 7.12373C8.13088 7.34234 8.2761 7.64765 8.27842 8.00682C8.2859 9.09801 8.28487 10.2079 8.28384 11.2812L8.28435 11.2817Z" fill="#03DAC5"/>
</svg>
