<svg width="8" height="14" viewBox="0 0 8 14" fill="none" xmlns="http://www.w3.org/2000/svg">
<path d="M3.23629 11.5001L3.23629 11.3758L3.23629 0.582721C3.23629 0.187363 3.43672 0.000400654 3.86059 0.000188457C3.89445 0.000188458 3.9283 0.000141301 3.96216 9.41431e-05C4.02987 -1.72014e-07 4.09758 -9.44872e-05 4.16529 0.00018847C4.52259 0.00209843 4.72753 0.192032 4.72798 0.526272C4.72891 1.07692 4.72861 5.05721 4.72848 6.78623C4.72845 7.14488 4.72843 7.40667 4.72843 7.52089L4.72843 11.3618L4.72843 11.5067C4.75088 11.4864 4.77121 11.4681 4.79011 11.4511C4.82536 11.4193 4.85562 11.3921 4.8853 11.3643C5.10985 11.1536 5.33433 10.9427 5.55883 10.7319C5.93298 10.3805 6.30716 10.029 6.68169 9.67806C6.98256 9.39624 7.2604 9.39582 7.56239 9.67467C7.63755 9.74406 7.71226 9.81388 7.78607 9.88434C8.02035 10.108 8.0269 10.3996 7.79261 10.6203C6.65596 11.692 5.51772 12.7622 4.37813 13.8311C4.13798 14.0563 3.82719 14.0563 3.58726 13.8311C2.4479 12.7622 1.30966 11.692 0.172782 10.6205C-0.0583405 10.4026 -0.0558581 10.1129 0.170299 9.89198C0.261484 9.80285 0.355153 9.71563 0.449498 9.62947C0.685812 9.41385 0.986452 9.41237 1.22119 9.63244C1.77435 10.1511 2.32549 10.6718 2.87665 11.1925C2.96485 11.2758 3.05306 11.3591 3.14127 11.4424C3.15761 11.4578 3.17095 11.476 3.18432 11.4942C3.19034 11.5024 3.19636 11.5106 3.20266 11.5186C3.20819 11.5154 3.21383 11.5124 3.21947 11.5094C3.22512 11.5064 3.23076 11.5033 3.23629 11.5001Z" fill="#6200EE"/>
<path d="M3.23629 11.5001L3.23629 11.3758L3.23629 0.582721C3.23629 0.187363 3.43672 0.000400654 3.86059 0.000188457C3.89445 0.000188458 3.9283 0.000141301 3.96216 9.41431e-05C4.02987 -1.72014e-07 4.09758 -9.44872e-05 4.16529 0.00018847C4.52259 0.00209843 4.72753 0.192032 4.72798 0.526272C4.72891 1.07692 4.72861 5.05721 4.72848 6.78623C4.72845 7.14488 4.72843 7.40667 4.72843 7.52089L4.72843 11.3618L4.72843 11.5067C4.75088 11.4864 4.77121 11.4681 4.79011 11.4511C4.82536 11.4193 4.85562 11.3921 4.8853 11.3643C5.10985 11.1536 5.33433 10.9427 5.55883 10.7319C5.93298 10.3805 6.30716 10.029 6.68169 9.67806C6.98256 9.39624 7.2604 9.39582 7.56239 9.67467C7.63755 9.74406 7.71226 9.81388 7.78607 9.88434C8.02035 10.108 8.0269 10.3996 7.79261 10.6203C6.65596 11.692 5.51772 12.7622 4.37813 13.8311C4.13798 14.0563 3.82719 14.0563 3.58726 13.8311C2.4479 12.7622 1.30966 11.692 0.172782 10.6205C-0.0583405 10.4026 -0.0558581 10.1129 0.170299 9.89198C0.261484 9.80285 0.355153 9.71563 0.449498 9.62947C0.685812 9.41385 0.986452 9.41237 1.22119 9.63244C1.77435 10.1511 2.32549 10.6718 2.87665 11.1925C2.96485 11.2758 3.05306 11.3591 3.14127 11.4424C3.15761 11.4578 3.17095 11.476 3.18432 11.4942C3.19034 11.5024 3.19636 11.5106 3.20266 11.5186C3.20819 11.5154 3.21383 11.5124 3.21947 11.5094C3.22512 11.5064 3.23076 11.5033 3.23629 11.5001Z" stroke="#6200EE"/>
</svg>
