<svg width="16" height="16" viewBox="0 0 16 16" fill="none" xmlns="http://www.w3.org/2000/svg">
<path d="M1.96051 1.76423C1.96051 1.82559 1.96051 1.87579 1.96051 1.92571C1.96051 2.48352 1.95911 3.04132 1.96078 3.59912C1.96329 4.38088 2.39726 4.95821 3.14584 5.17659C3.21668 5.19722 3.29142 5.21507 3.36449 5.21563C3.79651 5.21926 4.22992 5.23767 4.66055 5.2134C5.43143 5.17017 6.06482 4.47626 6.07569 3.68056C6.08378 3.09487 6.07765 2.50917 6.07792 1.92348C6.07792 1.87328 6.07792 1.82308 6.07792 1.76367H10.5127C10.5127 1.81081 10.5127 1.85961 10.5127 1.9087C10.5127 2.47571 10.5116 3.04299 10.513 3.61C10.5155 4.52591 11.1793 5.20475 12.0961 5.22511C12.4165 5.23209 12.7375 5.23237 13.0583 5.22511C13.9622 5.20475 14.6221 4.53372 14.6293 3.62785C14.6338 3.0653 14.6302 2.50304 14.6302 1.9405C14.6302 1.88583 14.6302 1.83089 14.6302 1.76479C15.0413 1.78487 15.3678 1.94412 15.6334 2.23334C15.9103 2.53483 16.0001 2.89964 15.9998 3.2993C15.9979 5.83256 15.9987 8.36582 15.9987 10.8994C15.9987 12.0197 15.9982 13.1398 15.999 14.2601C15.9993 14.6285 15.9167 14.9669 15.676 15.2586C15.3955 15.5988 15.034 15.7673 14.5981 15.7868C14.561 15.7885 14.5236 15.7879 14.4865 15.7879C10.3588 15.7879 6.23132 15.7871 2.10358 15.7891C1.6024 15.7891 1.18795 15.6181 0.878369 15.2159C0.662221 14.9339 0.59138 14.6085 0.591659 14.2604C0.592495 12.9635 0.591937 11.6666 0.591937 10.3697C0.591937 8.00827 0.593332 5.64709 0.590822 3.28564C0.590264 2.79254 0.743939 2.37391 1.13998 2.06293C1.37286 1.87997 1.63782 1.77873 1.96051 1.76395V1.76423ZM8.27901 7.27727C6.55485 7.27727 4.83096 7.27727 3.10679 7.27727C2.62875 7.27727 2.39392 7.50959 2.39392 7.98484C2.39336 9.84372 2.39364 11.7026 2.39392 13.5615C2.39392 14.0454 2.6282 14.2785 3.1132 14.2785C6.5568 14.2785 10.0001 14.2785 13.4437 14.2785C13.9385 14.2785 14.17 14.0484 14.17 13.5551C14.17 11.7009 14.17 9.84679 14.17 7.99237C14.17 7.5068 13.939 7.27727 13.4512 7.27727C11.7271 7.27727 10.0032 7.27727 8.27901 7.27727V7.27727Z" fill="#03DAC5"/>
<path d="M13.5806 2.09261C13.5806 2.58933 13.5817 3.08633 13.5806 3.58306C13.5795 3.99444 13.3751 4.19943 12.964 4.20194C12.6853 4.20361 12.4067 4.20473 12.1281 4.20138C11.7446 4.19664 11.5357 3.98746 11.5349 3.60118C11.5326 2.60272 11.5326 1.60453 11.5349 0.606065C11.5357 0.214488 11.7507 0.001965 12.1381 0.000849395C12.426 1.26913e-05 12.7141 -0.000545111 13.0019 0.000849395C13.3558 0.0030806 13.5767 0.217834 13.5798 0.573712C13.5845 1.07992 13.5809 1.58584 13.5812 2.09205L13.5806 2.09261Z" fill="#03DAC5"/>
<path d="M2.98384 2.09251C2.98384 1.60499 2.983 1.11747 2.98384 0.629955C2.98495 0.203794 3.19022 0.00131191 3.61862 0.00103301C3.89724 0.00103301 4.17586 -0.000361496 4.45448 0.00131191C4.80088 0.00382202 5.02623 0.218018 5.02762 0.564692C5.03181 1.59077 5.03181 2.61713 5.02762 3.6432C5.02623 3.97844 4.81259 4.19152 4.47791 4.19989C4.17168 4.20742 3.86489 4.20575 3.55865 4.20101C3.19859 4.19515 2.9883 3.98514 2.98523 3.62507C2.98077 3.11441 2.98411 2.60346 2.98411 2.09279L2.98384 2.09251Z" fill="#03DAC5"/>
<path d="M8.29461 13.4435C8.10413 13.4435 7.91364 13.4457 7.72287 13.4429C7.4607 13.4387 7.31511 13.2984 7.31205 13.0374C7.30758 12.6517 7.3073 12.266 7.31205 11.8802C7.31511 11.6278 7.45875 11.48 7.71115 11.4758C8.10134 11.4691 8.49208 11.4689 8.88226 11.4758C9.13439 11.4806 9.27607 11.6289 9.27886 11.8825C9.28332 12.2682 9.2836 12.6539 9.27886 13.0396C9.27551 13.3001 9.12937 13.4376 8.86608 13.4435C8.86134 13.4435 8.85688 13.4435 8.85214 13.4435C8.66611 13.4435 8.48036 13.4435 8.29434 13.4435H8.29461Z" fill="#03DAC5"/>
<path d="M8.29556 8.35362C8.49079 8.35362 8.68574 8.34944 8.88097 8.35473C9.13616 8.36143 9.27617 8.50088 9.27924 8.75747C9.2837 9.14291 9.28398 9.52863 9.27924 9.91407C9.27617 10.1695 9.13812 10.3126 8.88125 10.3174C8.49107 10.3243 8.10088 10.3246 7.7107 10.3174C7.44881 10.3126 7.3141 10.1668 7.31187 9.9004C7.3088 9.52417 7.3088 9.14793 7.31187 8.77169C7.3141 8.49948 7.45355 8.36143 7.72437 8.35362C7.73357 8.35362 7.74305 8.35362 7.75226 8.35362C7.93354 8.35362 8.11455 8.35362 8.29584 8.35362V8.35418L8.29556 8.35362Z" fill="#03DAC5"/>
<path d="M4.19725 12.456C4.19725 12.2611 4.19334 12.0658 4.19836 11.8709C4.20478 11.6221 4.33893 11.4804 4.58827 11.476C4.97817 11.4687 5.36863 11.4693 5.75854 11.4757C6.00927 11.4799 6.14956 11.6151 6.15513 11.8653C6.16378 12.26 6.16322 12.6549 6.15569 13.0495C6.15067 13.3078 6.00815 13.4408 5.75017 13.4431C5.36473 13.4464 4.97929 13.4467 4.59384 13.4431C4.34283 13.4405 4.20896 13.3047 4.19753 13.0557C4.19697 13.0465 4.19725 13.037 4.19725 13.0278C4.19725 12.8373 4.19725 12.6471 4.19725 12.4566V12.456Z" fill="#03DAC5"/>
<path d="M11.4162 13.4435C11.2212 13.4435 11.026 13.4465 10.831 13.4426C10.587 13.4376 10.4434 13.311 10.4369 13.0672C10.4266 12.6634 10.4266 12.259 10.4369 11.8554C10.4428 11.613 10.5842 11.4803 10.8285 11.4758C11.2184 11.4689 11.6089 11.4691 11.9988 11.4758C12.2543 11.48 12.3901 11.6225 12.3929 11.8808C12.3971 12.2662 12.3971 12.6517 12.3929 13.0371C12.3901 13.3093 12.2506 13.441 11.9734 13.4435C11.7877 13.4452 11.6019 13.4438 11.4162 13.4435V13.4435Z" fill="#03DAC5"/>
<path d="M5.17666 8.35271C5.36687 8.35271 5.55736 8.34964 5.74757 8.35354C6.01476 8.35884 6.15254 8.49049 6.15672 8.75795C6.16258 9.14311 6.16286 9.52856 6.15672 9.91372C6.15254 10.1806 6.01588 10.3142 5.74729 10.3178C5.36659 10.3231 4.98589 10.3229 4.60547 10.3178C4.33131 10.3142 4.20023 10.1773 4.198 9.89921C4.19493 9.52326 4.19521 9.1473 4.198 8.77134C4.20023 8.48714 4.33327 8.35689 4.61942 8.35327C4.80517 8.35076 4.99064 8.35271 5.17638 8.35299L5.17666 8.35271Z" fill="#03DAC5"/>
<path d="M12.3939 9.34058C12.3939 9.53079 12.3966 9.72128 12.393 9.91149C12.388 10.1737 12.2605 10.3123 12.0014 10.3173C11.6115 10.3245 11.2216 10.3243 10.8317 10.3173C10.5721 10.3128 10.4388 10.1773 10.4343 9.91568C10.4279 9.53051 10.4284 9.14507 10.4343 8.75991C10.4382 8.49189 10.5751 8.35718 10.8415 8.35411C11.2222 8.34992 11.6029 8.3502 11.9833 8.35411C12.2586 8.3569 12.3891 8.49161 12.393 8.76967C12.3958 8.95988 12.3936 9.15037 12.3936 9.34058H12.3939Z" fill="#03DAC5"/>
</svg>
