<svg width="21" height="20" viewBox="0 0 21 20" fill="none" xmlns="http://www.w3.org/2000/svg">
<path d="M8.20067 10.9332C8.09273 10.878 8.03052 10.8447 7.96684 10.8137C6.12173 9.90844 4.27662 9.00368 2.43127 8.09868C2.40086 8.0839 2.3707 8.06888 2.34128 8.05266C2.09964 7.91912 2.009 7.70281 2.1002 7.47774C2.19362 7.24715 2.42315 7.14697 2.69536 7.22172C2.86373 7.26801 3.03037 7.31885 3.19799 7.3673C3.20255 7.36845 3.20859 7.36482 3.23269 7.35839C3.25965 7.13842 3.28813 6.91079 3.3154 6.68342C3.43487 5.68639 3.55361 4.68962 3.6726 3.6926C3.72092 3.28853 3.96207 3.12567 4.34767 3.23788C4.49922 3.28193 4.64805 3.33532 4.80086 3.37386C5.02491 3.43017 5.15255 3.56758 5.2196 3.78648C5.56488 4.917 5.9198 6.04456 6.26315 7.17556C6.30706 7.31992 6.37809 7.38999 6.52339 7.43409C9.57954 8.36165 12.635 9.29137 15.6877 10.2295C16.2684 10.4078 16.8458 10.6031 17.4066 10.833C17.6751 10.9431 17.9102 11.1405 18.144 11.3192C18.4993 11.5912 18.8451 11.876 19.1859 12.1658C19.4918 12.4259 19.7603 12.7211 19.8657 13.1226C19.9887 13.5918 19.7724 13.9331 19.2955 14.0527C18.8869 14.1551 18.4769 14.1296 18.085 14.0222C17.1125 13.7559 16.1469 13.4656 15.1803 13.1786C14.4027 12.9478 13.6283 12.7067 12.8511 12.474C12.7665 12.4487 12.6735 12.4378 12.5848 12.4407C10.9529 12.4899 9.3211 12.5456 7.68897 12.5893C7.48385 12.5947 7.27258 12.5602 7.07396 12.5094C6.73574 12.4231 6.40472 12.3106 6.07122 12.2068C5.83529 12.1334 5.73062 12.0087 5.74022 11.8216C5.74954 11.6385 5.86962 11.5188 6.11057 11.4589C6.75055 11.2994 7.391 11.1414 8.03122 10.9822C8.06929 10.9728 8.1069 10.9605 8.19995 10.9334L8.20067 10.9332Z" fill="#03DAC5"/>
<path d="M11.178 19.9894C8.43497 19.9894 5.69157 19.9894 2.94851 19.9894C2.45638 19.9894 2.12347 19.7401 2.02249 19.3001C1.9141 18.8278 2.21301 18.3451 2.67485 18.2519C2.76237 18.2342 2.85291 18.2262 2.94212 18.2262C8.43968 18.2251 13.9372 18.2248 19.4348 18.2255C19.9808 18.2255 20.3639 18.5694 20.383 19.0695C20.4009 19.538 20.0676 19.9327 19.6092 19.9828C19.5314 19.9912 19.4523 19.9898 19.3739 19.9898C16.6419 19.9898 13.91 19.9898 11.178 19.9898V19.9894Z" fill="#03DAC5"/>
</svg>
