<svg width="20" height="15" viewBox="0 0 20 15" fill="none" xmlns="http://www.w3.org/2000/svg">
<path d="M8.51338 6.90259C8.39777 6.93964 8.33002 6.95988 8.26295 6.98287C6.31376 7.64328 4.36491 8.30403 2.41572 8.96479C2.3837 8.97577 2.35168 8.9864 2.31932 8.99566C2.05339 9.07148 1.83531 8.9816 1.73959 8.75689C1.64151 8.52669 1.73251 8.29305 1.97822 8.15377C2.13023 8.06766 2.28427 7.98601 2.43729 7.90195C2.44134 7.89955 2.44302 7.89269 2.45549 7.87108C2.31797 7.69543 2.17607 7.51326 2.0335 7.33211C1.40826 6.53791 0.78269 5.74438 0.157116 4.95052C-0.0963488 4.62872 -0.0417459 4.34225 0.310813 4.14945C0.449343 4.07363 0.592591 4.00639 0.728087 3.92577C0.926612 3.80741 1.11469 3.81496 1.31793 3.92337C2.36685 4.48394 3.42048 5.0356 4.46838 5.59789C4.60219 5.66959 4.7023 5.66925 4.83645 5.59789C7.65793 4.09696 10.4804 2.59808 13.307 1.1071C13.8446 0.823381 14.3919 0.55407 14.9521 0.321126C15.2204 0.209628 15.5271 0.183897 15.8197 0.145817C16.2646 0.0881807 16.7119 0.0463261 17.1592 0.011676C17.5606 -0.0195435 17.9607 0.000697706 18.321 0.212029C18.742 0.45904 18.832 0.854943 18.5799 1.27726C18.3638 1.6392 18.0557 1.91091 17.7022 2.11161C16.8248 2.60975 15.9353 3.08593 15.0475 3.5652C14.3333 3.95081 13.614 4.32682 12.8988 4.71071C12.8209 4.75257 12.7475 4.81055 12.6868 4.87539C11.5678 6.06447 10.4535 7.25801 9.3304 8.44332C9.18917 8.59221 9.01525 8.71709 8.83864 8.82138C8.53798 8.99909 8.22385 9.15313 7.91409 9.31506C7.69501 9.42965 7.53221 9.41489 7.40582 9.27492C7.28212 9.13804 7.28178 8.96787 7.40952 8.75483C7.7486 8.18876 8.08903 7.62338 8.42844 7.05732C8.44866 7.02369 8.46653 6.98836 8.51304 6.90328L8.51338 6.90259Z" fill="#03DAC5"/>
<path d="M10.1778 14.7748C7.43472 14.7748 4.69133 14.7748 1.94827 14.7748C1.45614 14.7748 1.12323 14.524 1.02225 14.0814C0.913857 13.6063 1.21277 13.1207 1.6746 13.027C1.76212 13.0091 1.85267 13.0011 1.94187 13.0011C7.43944 13 12.937 12.9997 18.4346 13.0004C18.9805 13.0004 19.3636 13.3464 19.3828 13.8494C19.4006 14.3207 19.0674 14.7178 18.6089 14.7681C18.5312 14.7765 18.4521 14.7751 18.3736 14.7751C15.6417 14.7751 12.9097 14.7751 10.1778 14.7751V14.7748Z" fill="#03DAC5"/>
</svg>
